<?xml version="1.0" encoding="UTF-8" standalone="no"?>
<!-- Created with Inkscape (http://www.inkscape.org/) -->

<svg
   xmlns:dc="http://purl.org/dc/elements/1.1/"
   xmlns:cc="http://creativecommons.org/ns#"
   xmlns:rdf="http://www.w3.org/1999/02/22-rdf-syntax-ns#"
   xmlns:svg="http://www.w3.org/2000/svg"
   xmlns="http://www.w3.org/2000/svg"
   xmlns:sodipodi="http://sodipodi.sourceforge.net/DTD/sodipodi-0.dtd"
   xmlns:inkscape="http://www.inkscape.org/namespaces/inkscape"
   version="1.1"
   id="svg3713"
   xml:space="preserve"
   width="733.33331"
   height="533.33331"
   viewBox="0 0 733.33331 533.33331"
   sodipodi:docname="logo25.svg"
   inkscape:version="0.92.3 (2405546, 2018-03-11)"><metadata
     id="metadata3719"><rdf:RDF><cc:Work
         rdf:about=""><dc:format>image/svg+xml</dc:format><dc:type
           rdf:resource="http://purl.org/dc/dcmitype/StillImage" /><dc:title></dc:title></cc:Work></rdf:RDF></metadata><defs
     id="defs3717"><clipPath
       clipPathUnits="userSpaceOnUse"
       id="clipPath3729"><path
         d="M 0,400 H 550 V 0 H 0 Z"
         id="path3727"
         inkscape:connector-curvature="0" /></clipPath></defs><sodipodi:namedview
     pagecolor="#ffffff"
     bordercolor="#666666"
     borderopacity="1"
     objecttolerance="10"
     gridtolerance="10"
     guidetolerance="10"
     inkscape:pageopacity="0"
     inkscape:pageshadow="2"
     inkscape:window-width="1920"
     inkscape:window-height="1027"
     id="namedview3715"
     showgrid="false"
     inkscape:zoom="1.5862501"
     inkscape:cx="366.66666"
     inkscape:cy="266.66666"
     inkscape:window-x="-8"
     inkscape:window-y="-8"
     inkscape:window-maximized="1"
     inkscape:current-layer="g3721" /><g
     id="g3721"
     inkscape:groupmode="layer"
     inkscape:label="logo25"
     transform="matrix(1.3333333,0,0,-1.3333333,0,533.33333)"><g
       id="g3723"
       style="fill:#41b883;fill-opacity:1"><g
         id="g3725"
         clip-path="url(#clipPath3729)"
         style="fill:#41b883;fill-opacity:1"><g
           id="g3731"
           transform="translate(346.1504,246.7998)"
           style="fill:#41b883;fill-opacity:1"><path
             d="m 0,0 c 13.733,-15.9 20.6,-34.6 20.6,-56.1 v -0.1 c 0,-23.866 -8.401,-44.216 -25.201,-61.05 -14.899,-14.8 -32.433,-23.1 -52.599,-24.899 v -0.351 h -96.05 c 12.667,0.9 24.2,3.117 34.6,6.65 3.799,1.467 7.299,2.967 10.5,4.5 30.766,14.967 45.583,44.15 44.45,87.55 -52.767,-4 -82.25,-30.983 -88.45,-80.95 l -0.65,-6.6 c -0.2,-2.066 -0.35,-4.15 -0.45,-6.25 V 30.15 h 96.05 v -0.4 C -37.034,27.983 -19.5,19.7 -4.601,4.9 Z"
             style="fill:#41b883;fill-opacity:1;fill-rule:evenodd;stroke:none"
             id="path3733"
             inkscape:connector-curvature="0" /></g></g></g></g></svg>